<svg width="23" height="25" viewBox="0 0 23 25" fill="none" xmlns="http://www.w3.org/2000/svg">
<path fill-rule="evenodd" clip-rule="evenodd" d="M11.4489 23.7374C17.2474 23.7374 21.948 18.7365 21.948 12.5675C21.948 6.39842 17.2474 1.39746 11.4489 1.39746C5.65033 1.39746 0.949707 6.39842 0.949707 12.5675C0.949707 18.7365 5.65033 23.7374 11.4489 23.7374Z" fill="#FEFEFE"/>
<path fill-rule="evenodd" clip-rule="evenodd" d="M17.9147 3.76957C17.0331 3.03478 15.9005 3.86866 16.1063 4.99775C16.2168 5.60365 16.709 6.06931 17.3197 6.14939C18.5118 6.30572 19.296 5.04804 18.423 4.2213C18.2582 4.06519 18.0887 3.91453 17.9147 3.76957Z" fill="#4C4C4C"/>
<path fill-rule="evenodd" clip-rule="evenodd" d="M19.1546 15.3371C19.5645 16.6663 21.2461 16.8242 21.5875 15.4758C21.8223 14.5486 21.9475 13.5738 21.9475 12.5677C21.9475 12.2656 21.5996 12.1074 21.3612 12.2928L19.6503 13.6233C19.1531 14.0099 18.947 14.6638 19.1326 15.2656L19.1546 15.3371Z" fill="#4C4C4C"/>
<path fill-rule="evenodd" clip-rule="evenodd" d="M12.1214 23.7147C13.5304 23.619 13.7832 21.9101 12.6461 21.0723C11.9851 20.5853 11.0769 20.6049 10.4388 21.1218C9.35364 22.0011 9.67333 23.677 11.069 23.7303C11.1949 23.7351 11.3214 23.7375 11.4484 23.7375C11.6745 23.7375 11.8989 23.7298 12.1214 23.7147Z" fill="#4C4C4C"/>
<path opacity="0.3" fill-rule="evenodd" clip-rule="evenodd" d="M21.2625 8.36384C20.7449 7.0292 19.0906 8.03732 19.0906 9.46882C19.0906 15.6378 14.39 20.6388 8.59146 20.6388C7.2287 20.6388 6.10309 22.2749 7.33771 22.8518C8.62764 23.4545 10.0533 23.7891 11.5526 23.7891C17.3511 23.7891 22.0517 18.7882 22.0517 12.6191C22.0517 11.1122 21.7711 9.67521 21.2625 8.36384Z" fill="#010202"/>
<mask id="mask0_82_125" style="mask-type:alpha" maskUnits="userSpaceOnUse" x="0" y="0" width="23" height="25">
<path d="M0.456055 16.2626C0.456055 20.6809 4.03778 24.2626 8.45606 24.2626H14.4411C18.8593 24.2626 22.4411 20.6809 22.4411 16.2626V8.87256C22.4411 4.45428 18.8593 0.872559 14.4411 0.872559L8.45606 0.872559C4.03778 0.872559 0.456055 4.45428 0.456055 8.87256L0.456055 16.2626Z" fill="white"/>
</mask>
<g mask="url(#mask0_82_125)">
<path fill-rule="evenodd" clip-rule="evenodd" d="M11.4487 1.92267C5.9315 1.92267 1.4431 6.69785 1.4431 12.5676C1.4431 18.437 5.9315 23.2125 11.4487 23.2125C16.966 23.2125 21.4541 18.437 21.4541 12.5676C21.4541 6.69785 16.966 1.92267 11.4487 1.92267ZM11.4487 24.2627C5.38732 24.2627 0.456055 19.016 0.456055 12.5676C0.456055 6.1189 5.38732 0.872559 11.4487 0.872559C17.5102 0.872559 22.4411 6.1189 22.4411 12.5676C22.4411 19.016 17.5102 24.2627 11.4487 24.2627Z" fill="#2E2E30"/>
</g>
<path fill-rule="evenodd" clip-rule="evenodd" d="M13.6132 15.0428C12.3383 16.0282 10.5587 16.0282 9.28371 15.0428C8.11912 14.1426 7.63309 12.6158 8.06303 11.208L8.17463 10.8427C8.61436 9.40292 9.94308 8.41943 11.4485 8.41943C12.9539 8.41943 14.2826 9.40292 14.7223 10.8427L14.8339 11.208C15.2639 12.6158 14.7778 14.1426 13.6132 15.0428Z" fill="#4C4C4C"/>
<path fill-rule="evenodd" clip-rule="evenodd" d="M8.54234 11.3382C8.17336 12.5466 8.5906 13.8573 9.59027 14.63C10.6848 15.4761 12.2126 15.4761 13.3072 14.6301C14.307 13.8574 14.7243 12.5465 14.3552 11.338L14.2596 11.0249C13.882 9.78878 12.7413 8.94439 11.4488 8.94439C10.1562 8.94439 9.01542 9.78888 8.63795 11.0251L8.54234 11.3382ZM11.4487 17.2409C11.347 17.2409 11.2451 17.2073 11.1585 17.1408L7.05868 13.9716C6.88595 13.8379 6.81356 13.6009 6.8797 13.3842L8.44514 8.25692C8.51161 8.0406 8.70112 7.89429 8.91465 7.89429L13.9824 7.89429C14.1963 7.89429 14.3858 8.0406 14.452 8.25692L16.0181 13.3842C16.0839 13.6009 16.0115 13.8375 15.8387 13.9716L11.7389 17.1408C11.6524 17.2073 11.5507 17.2409 11.4487 17.2409Z" fill="#2E2E30"/>
<path fill-rule="evenodd" clip-rule="evenodd" d="M7.30246 4.76845C7.55517 3.60316 6.425 2.68012 5.46619 3.38896C5.2625 3.53954 5.06407 3.69761 4.87124 3.86279C3.89713 4.69719 4.69189 6.06387 5.96897 5.94479C6.62026 5.88407 7.16383 5.40771 7.30246 4.76845Z" fill="#4C4C4C"/>
<path fill-rule="evenodd" clip-rule="evenodd" d="M6.8052 4.72529C6.96133 4.00535 6.22745 3.45818 5.64126 3.90435C5.55749 3.96811 5.47461 4.03324 5.39267 4.0997C4.77323 4.60211 5.23208 5.48641 6.02622 5.41242C6.40668 5.37698 6.72421 5.09872 6.8052 4.72529ZM2.79733 6.76562C2.62263 6.76562 2.45944 6.66691 2.37093 6.50484C2.27453 6.32913 2.28243 6.11 2.39067 5.94269C3.70706 3.91003 5.55118 2.39542 7.723 1.56304C7.89277 1.49758 8.08294 1.53643 8.21817 1.6642C8.35306 1.79196 8.41196 1.98763 8.37149 2.1749L7.5506 5.96019C7.50223 6.18176 7.32555 6.34523 7.11268 6.36518L2.84044 6.76352C2.82596 6.76492 2.81148 6.76562 2.79733 6.76562Z" fill="#2E2E30"/>
<path fill-rule="evenodd" clip-rule="evenodd" d="M16.6031 4.9674C16.6653 5.30881 16.9431 5.57124 17.2872 5.61633C18.0023 5.71005 18.4452 4.92212 17.9093 4.43942C17.8431 4.37974 17.7761 4.32098 17.7084 4.26317C17.1887 3.8192 16.4805 4.2949 16.6031 4.9674ZM20.2849 7.06372C20.2652 7.06372 20.2448 7.06232 20.2244 7.05952L16.2311 6.53587C16.0189 6.50821 15.8478 6.3381 15.807 6.11477L15.1326 2.4149C15.0977 2.22343 15.1655 2.02741 15.3079 1.90559C15.451 1.78378 15.6452 1.75543 15.8133 1.83314C17.8223 2.75898 19.5121 4.28794 20.7001 6.25479C20.8034 6.42596 20.8044 6.64543 20.7028 6.818C20.6116 6.97201 20.4534 7.06372 20.2849 7.06372Z" fill="#2E2E30"/>
<path fill-rule="evenodd" clip-rule="evenodd" d="M10.8377 21.4588C10.0977 22.0585 10.3711 23.1982 11.3234 23.2106C11.497 23.2129 11.6707 23.2104 11.8441 23.2032C12.8071 23.1631 13.0362 21.9987 12.2603 21.4269C11.8343 21.1129 11.2489 21.1256 10.8377 21.4588ZM11.4487 24.2628C10.2093 24.2628 8.98832 24.0422 7.82032 23.6075C7.64891 23.5434 7.52421 23.3849 7.49591 23.1937C7.46729 23.003 7.53967 22.8112 7.68411 22.6939L11.223 19.8264C11.3931 19.6881 11.627 19.6832 11.803 19.8124L15.5212 22.5521C15.6713 22.6631 15.7515 22.8528 15.7301 23.0457C15.7088 23.2386 15.5887 23.4034 15.4186 23.4734C14.1486 23.9971 12.8131 24.2628 11.4487 24.2628Z" fill="#2E2E30"/>
<path fill-rule="evenodd" clip-rule="evenodd" d="M3.76429 15.2669C3.95011 14.6643 3.74374 14.0096 3.24596 13.6225L1.53604 12.2928C1.2974 12.1072 0.949707 12.2654 0.949707 12.5677C0.949707 13.5738 1.07499 14.5486 1.30972 15.4758C1.6511 16.8242 3.33273 16.6663 3.74262 15.3371L3.76429 15.2669Z" fill="#4C4C4C"/>
<mask id="mask1_82_125" style="mask-type:alpha" maskUnits="userSpaceOnUse" x="0" y="11" width="5" height="9">
<path d="M0.456055 11.3298C0.456055 11.3298 0.456055 11.3298 0.456055 11.3298L0.456055 17.2035C0.456055 18.3386 1.37619 19.2587 2.51123 19.2587C3.64627 19.2587 4.5664 18.3386 4.5664 17.2035L4.5664 15.2943C4.5664 13.1048 2.79147 11.3298 0.601972 11.3298H0.456055Z" fill="white"/>
</mask>
<g mask="url(#mask1_82_125)">
<path fill-rule="evenodd" clip-rule="evenodd" d="M2.98917 14.0731C2.37372 13.5945 1.51236 14.0482 1.6668 14.8125C1.68948 14.9247 1.71386 15.0364 1.73994 15.1477C1.94195 16.0099 3.03262 15.9558 3.2936 15.1096L3.30459 15.0739C3.4177 14.7072 3.29212 14.3088 2.98917 14.0731ZM2.69532 19.2587C2.53147 19.2587 2.37618 19.1719 2.28406 19.0238C1.08809 17.107 0.456055 14.8745 0.456055 12.5674C0.456055 12.3168 0.466254 12.069 0.480731 11.8225C0.491917 11.6311 0.600492 11.4613 0.763683 11.3797C0.925887 11.2982 1.11869 11.3174 1.26411 11.4312L4.36408 13.8419C4.53714 13.976 4.60854 14.2133 4.54175 14.4293L3.16417 18.8975C3.10527 19.0886 2.94866 19.2268 2.76146 19.2542C2.73941 19.257 2.71704 19.2587 2.69532 19.2587Z" fill="#2E2E30"/>
</g>
<path fill-rule="evenodd" clip-rule="evenodd" d="M8.91479 8.41929L7.17529 5.9939L8.91479 8.41929Z" fill="#FEFEFE"/>
<path fill-rule="evenodd" clip-rule="evenodd" d="M8.91509 8.94441C8.76637 8.94441 8.61963 8.87335 8.52257 8.73789L6.7834 6.31249C6.61791 6.08182 6.6597 5.75243 6.87619 5.57672C7.09366 5.40065 7.40261 5.4451 7.56777 5.67578L9.30694 8.10082C9.47244 8.3315 9.43065 8.66088 9.21416 8.8366C9.12467 8.90941 9.01938 8.94441 8.91509 8.94441Z" fill="#2E2E30"/>
<path fill-rule="evenodd" clip-rule="evenodd" d="M13.9824 8.41929L16.2914 6.01489L13.9824 8.41929Z" fill="#FEFEFE"/>
<path fill-rule="evenodd" clip-rule="evenodd" d="M13.9828 8.94445C13.8545 8.94445 13.7268 8.89195 13.6301 8.78659C13.4396 8.57972 13.4426 8.24718 13.6377 8.04416L15.9467 5.63977C16.1408 5.43674 16.4537 5.44024 16.6445 5.64747C16.835 5.85469 16.8317 6.18722 16.6366 6.38989L14.3279 8.79464C14.2322 8.8944 14.1075 8.94445 13.9828 8.94445Z" fill="#2E2E30"/>
<path fill-rule="evenodd" clip-rule="evenodd" d="M7.3489 13.5469L4.07324 14.2655L7.3489 13.5469Z" fill="#FEFEFE"/>
<path fill-rule="evenodd" clip-rule="evenodd" d="M4.07258 14.7908C3.84359 14.7908 3.63796 14.62 3.58992 14.3718C3.53465 14.0876 3.70672 13.81 3.97355 13.7516L7.24954 13.0329C7.51407 12.9734 7.77761 13.1568 7.83255 13.4411C7.88783 13.725 7.71575 14.0025 7.44892 14.061L4.17293 14.78C4.13937 14.7873 4.10581 14.7908 4.07258 14.7908Z" fill="#2E2E30"/>
<path fill-rule="evenodd" clip-rule="evenodd" d="M19.9081 14.0727C19.6051 14.3083 19.4795 14.7068 19.5926 15.0736L19.6036 15.1093C19.8646 15.9555 20.9553 16.0096 21.1573 15.1474C21.1834 15.0361 21.2078 14.9243 21.2305 14.8121C21.3849 14.0479 20.5236 13.5942 19.9081 14.0727ZM20.2022 19.2586C20.1802 19.2586 20.1581 19.2569 20.1361 19.2541C19.9485 19.2268 19.7923 19.0885 19.7334 18.8974L18.3555 14.4292C18.2883 14.2132 18.3601 13.9759 18.5331 13.8418L21.6328 11.4311C21.7785 11.3177 21.971 11.2988 22.1332 11.3793C22.2964 11.4609 22.405 11.6303 22.4165 11.8218C22.4329 12.0958 22.4412 12.3402 22.4412 12.5673C22.4412 14.8741 21.8091 17.1066 20.6135 19.0237C20.5214 19.1718 20.3661 19.2586 20.2022 19.2586Z" fill="#2E2E30"/>
<path fill-rule="evenodd" clip-rule="evenodd" d="M15.5483 13.5469L18.824 14.2655L15.5483 13.5469Z" fill="#FEFEFE"/>
<path fill-rule="evenodd" clip-rule="evenodd" d="M18.8251 14.7907C18.7919 14.7907 18.7584 14.7872 18.7248 14.7799L15.4491 14.0609C15.1823 14.0024 15.0102 13.7249 15.0655 13.441C15.1205 13.1567 15.3837 12.9737 15.6485 13.0328L18.9242 13.7515C19.191 13.8099 19.3631 14.0875 19.3078 14.3717C19.2598 14.6199 19.0541 14.7907 18.8251 14.7907Z" fill="#2E2E30"/>
<path fill-rule="evenodd" clip-rule="evenodd" d="M11.4486 20.769C11.1762 20.769 10.9551 20.5338 10.9551 20.244V16.716C10.9551 16.4261 11.1762 16.1909 11.4486 16.1909C11.721 16.1909 11.9421 16.4261 11.9421 16.716V20.244C11.9421 20.5338 11.721 20.769 11.4486 20.769Z" fill="#2E2E30"/>
</svg>
